<mxfile host="app.diagrams.net" modified="2023-12-28T02:28:26.076Z" agent="Mozilla/5.0 (Windows NT 10.0; Win64; x64; rv:121.0) Gecko/20100101 Firefox/121.0" etag="dRtxhFZKpMHzggxIsMrZ" version="22.1.15" type="github" pages="2">
  <diagram name="List Selection Page" id="qDyTEAsf7X1trr7rJIsg">
    <mxGraphModel dx="2625" dy="1443" grid="1" gridSize="10" guides="1" tooltips="1" connect="1" arrows="1" fold="1" page="1" pageScale="1" pageWidth="850" pageHeight="1100" math="0" shadow="0">
      <root>
        <mxCell id="0" />
        <mxCell id="1" parent="0" />
        <mxCell id="VqeSMfjWMOhX9IEyPzhy-2" value="" style="strokeWidth=1;shadow=0;dashed=0;align=center;html=1;shape=mxgraph.mockup.containers.browserWindow;rSize=0;strokeColor=#666666;strokeColor2=#008cff;strokeColor3=#c4c4c4;mainText=,;recursiveResize=0;movable=0;resizable=0;rotatable=0;deletable=0;editable=0;locked=1;connectable=0;" vertex="1" parent="1">
          <mxGeometry x="310" y="370" width="1880" height="960" as="geometry" />
        </mxCell>
        <mxCell id="VqeSMfjWMOhX9IEyPzhy-3" value="Page 1" style="strokeWidth=1;shadow=0;dashed=0;align=center;html=1;shape=mxgraph.mockup.containers.anchor;fontSize=17;fontColor=#666666;align=left;whiteSpace=wrap;" vertex="1" parent="VqeSMfjWMOhX9IEyPzhy-2">
          <mxGeometry x="60" y="12" width="110" height="26" as="geometry" />
        </mxCell>
        <mxCell id="VqeSMfjWMOhX9IEyPzhy-4" value="https://www.draw.io" style="strokeWidth=1;shadow=0;dashed=0;align=center;html=1;shape=mxgraph.mockup.containers.anchor;rSize=0;fontSize=17;fontColor=#666666;align=left;" vertex="1" parent="VqeSMfjWMOhX9IEyPzhy-2">
          <mxGeometry x="130" y="60" width="250" height="26" as="geometry" />
        </mxCell>
        <mxCell id="VqeSMfjWMOhX9IEyPzhy-5" value="&lt;b&gt;&lt;font style=&quot;font-size: 20px&quot;&gt;List Name &lt;/font&gt;&lt;/b&gt;&lt;font color=&quot;#6c767d&quot;&gt;&lt;b&gt;&lt;font style=&quot;font-size: 14px&quot;&gt;&lt;br style=&quot;font-size: 10px&quot;&gt;Crew Name&lt;br&gt;&lt;/font&gt;&lt;/b&gt;&lt;/font&gt;&lt;br style=&quot;font-size: 14px&quot;&gt;&lt;div&gt;Leader: Leader Name&lt;/div&gt;&lt;div&gt;Description: Short user-specified description of the crew.&lt;br&gt;&lt;/div&gt;" style="html=1;shadow=0;dashed=0;shape=mxgraph.bootstrap.rrect;rSize=5;strokeColor=#DFDFDF;html=1;whiteSpace=wrap;fillColor=#ffffff;fontColor=#000000;verticalAlign=top;align=left;spacing=20;fontSize=14;" vertex="1" parent="1">
          <mxGeometry x="620" y="590" width="250" height="190" as="geometry" />
        </mxCell>
        <mxCell id="VqeSMfjWMOhX9IEyPzhy-6" value="Edit" style="html=1;shadow=0;dashed=0;shape=mxgraph.bootstrap.rrect;rSize=5;perimeter=none;whiteSpace=wrap;fillColor=none;strokeColor=none;fontColor=#0085FC;resizeWidth=1;fontSize=14;align=center;" vertex="1" parent="VqeSMfjWMOhX9IEyPzhy-5">
          <mxGeometry y="1" width="80" height="40" relative="1" as="geometry">
            <mxPoint x="10" y="-50" as="offset" />
          </mxGeometry>
        </mxCell>
        <mxCell id="VqeSMfjWMOhX9IEyPzhy-7" value="Delete" style="html=1;shadow=0;dashed=0;shape=mxgraph.bootstrap.rrect;rSize=5;perimeter=none;whiteSpace=wrap;fillColor=none;strokeColor=none;fontColor=#ff0000;resizeWidth=1;fontSize=14;align=center;" vertex="1" parent="VqeSMfjWMOhX9IEyPzhy-5">
          <mxGeometry y="1" width="100" height="40" relative="1" as="geometry">
            <mxPoint x="100" y="-50" as="offset" />
          </mxGeometry>
        </mxCell>
        <mxCell id="VqeSMfjWMOhX9IEyPzhy-11" value="&lt;b&gt;&lt;font style=&quot;font-size: 20px&quot;&gt;List Name &lt;/font&gt;&lt;/b&gt;&lt;font color=&quot;#6c767d&quot;&gt;&lt;b&gt;&lt;font style=&quot;font-size: 14px&quot;&gt;&lt;br style=&quot;font-size: 10px&quot;&gt;Crew Name&lt;br&gt;&lt;/font&gt;&lt;/b&gt;&lt;/font&gt;&lt;br style=&quot;font-size: 14px&quot;&gt;&lt;div&gt;Leader: Leader Name&lt;/div&gt;&lt;div&gt;Description: Short user-specified description of the crew.&lt;br&gt;&lt;/div&gt;" style="html=1;shadow=0;dashed=0;shape=mxgraph.bootstrap.rrect;rSize=5;strokeColor=#DFDFDF;html=1;whiteSpace=wrap;fillColor=#ffffff;fontColor=#000000;verticalAlign=top;align=left;spacing=20;fontSize=14;" vertex="1" parent="1">
          <mxGeometry x="880" y="590" width="250" height="190" as="geometry" />
        </mxCell>
        <mxCell id="VqeSMfjWMOhX9IEyPzhy-12" value="Edit" style="html=1;shadow=0;dashed=0;shape=mxgraph.bootstrap.rrect;rSize=5;perimeter=none;whiteSpace=wrap;fillColor=none;strokeColor=none;fontColor=#0085FC;resizeWidth=1;fontSize=14;align=center;" vertex="1" parent="VqeSMfjWMOhX9IEyPzhy-11">
          <mxGeometry y="1" width="80" height="40" relative="1" as="geometry">
            <mxPoint x="10" y="-50" as="offset" />
          </mxGeometry>
        </mxCell>
        <mxCell id="VqeSMfjWMOhX9IEyPzhy-13" value="Delete" style="html=1;shadow=0;dashed=0;shape=mxgraph.bootstrap.rrect;rSize=5;perimeter=none;whiteSpace=wrap;fillColor=none;strokeColor=none;fontColor=#ff0000;resizeWidth=1;fontSize=14;align=center;" vertex="1" parent="VqeSMfjWMOhX9IEyPzhy-11">
          <mxGeometry y="1" width="100" height="40" relative="1" as="geometry">
            <mxPoint x="100" y="-50" as="offset" />
          </mxGeometry>
        </mxCell>
        <mxCell id="VqeSMfjWMOhX9IEyPzhy-14" value="&lt;b&gt;&lt;font style=&quot;font-size: 20px&quot;&gt;List Name &lt;/font&gt;&lt;/b&gt;&lt;font color=&quot;#6c767d&quot;&gt;&lt;b&gt;&lt;font style=&quot;font-size: 14px&quot;&gt;&lt;br style=&quot;font-size: 10px&quot;&gt;Crew Name&lt;br&gt;&lt;/font&gt;&lt;/b&gt;&lt;/font&gt;&lt;br style=&quot;font-size: 14px&quot;&gt;&lt;div&gt;Leader: Leader Name&lt;/div&gt;&lt;div&gt;Description: Short user-specified description of the crew.&lt;br&gt;&lt;/div&gt;" style="html=1;shadow=0;dashed=0;shape=mxgraph.bootstrap.rrect;rSize=5;strokeColor=#DFDFDF;html=1;whiteSpace=wrap;fillColor=#ffffff;fontColor=#000000;verticalAlign=top;align=left;spacing=20;fontSize=14;" vertex="1" parent="1">
          <mxGeometry x="1140" y="590" width="250" height="190" as="geometry" />
        </mxCell>
        <mxCell id="VqeSMfjWMOhX9IEyPzhy-15" value="Edit" style="html=1;shadow=0;dashed=0;shape=mxgraph.bootstrap.rrect;rSize=5;perimeter=none;whiteSpace=wrap;fillColor=none;strokeColor=none;fontColor=#0085FC;resizeWidth=1;fontSize=14;align=center;" vertex="1" parent="VqeSMfjWMOhX9IEyPzhy-14">
          <mxGeometry y="1" width="80" height="40" relative="1" as="geometry">
            <mxPoint x="10" y="-50" as="offset" />
          </mxGeometry>
        </mxCell>
        <mxCell id="VqeSMfjWMOhX9IEyPzhy-16" value="Delete" style="html=1;shadow=0;dashed=0;shape=mxgraph.bootstrap.rrect;rSize=5;perimeter=none;whiteSpace=wrap;fillColor=none;strokeColor=none;fontColor=#ff0000;resizeWidth=1;fontSize=14;align=center;" vertex="1" parent="VqeSMfjWMOhX9IEyPzhy-14">
          <mxGeometry y="1" width="100" height="40" relative="1" as="geometry">
            <mxPoint x="100" y="-50" as="offset" />
          </mxGeometry>
        </mxCell>
        <mxCell id="VqeSMfjWMOhX9IEyPzhy-17" value="&lt;b&gt;&lt;font style=&quot;font-size: 20px&quot;&gt;List Name &lt;/font&gt;&lt;/b&gt;&lt;font color=&quot;#6c767d&quot;&gt;&lt;b&gt;&lt;font style=&quot;font-size: 14px&quot;&gt;&lt;br style=&quot;font-size: 10px&quot;&gt;Crew Name&lt;br&gt;&lt;/font&gt;&lt;/b&gt;&lt;/font&gt;&lt;br style=&quot;font-size: 14px&quot;&gt;&lt;div&gt;Leader: Leader Name&lt;/div&gt;&lt;div&gt;Description: Short user-specified description of the crew.&lt;br&gt;&lt;/div&gt;" style="html=1;shadow=0;dashed=0;shape=mxgraph.bootstrap.rrect;rSize=5;strokeColor=#DFDFDF;html=1;whiteSpace=wrap;fillColor=#ffffff;fontColor=#000000;verticalAlign=top;align=left;spacing=20;fontSize=14;" vertex="1" parent="1">
          <mxGeometry x="1400" y="590" width="250" height="190" as="geometry" />
        </mxCell>
        <mxCell id="VqeSMfjWMOhX9IEyPzhy-18" value="Edit" style="html=1;shadow=0;dashed=0;shape=mxgraph.bootstrap.rrect;rSize=5;perimeter=none;whiteSpace=wrap;fillColor=none;strokeColor=none;fontColor=#0085FC;resizeWidth=1;fontSize=14;align=center;" vertex="1" parent="VqeSMfjWMOhX9IEyPzhy-17">
          <mxGeometry y="1" width="80" height="40" relative="1" as="geometry">
            <mxPoint x="10" y="-50" as="offset" />
          </mxGeometry>
        </mxCell>
        <mxCell id="VqeSMfjWMOhX9IEyPzhy-19" value="Delete" style="html=1;shadow=0;dashed=0;shape=mxgraph.bootstrap.rrect;rSize=5;perimeter=none;whiteSpace=wrap;fillColor=none;strokeColor=none;fontColor=#ff0000;resizeWidth=1;fontSize=14;align=center;" vertex="1" parent="VqeSMfjWMOhX9IEyPzhy-17">
          <mxGeometry y="1" width="100" height="40" relative="1" as="geometry">
            <mxPoint x="100" y="-50" as="offset" />
          </mxGeometry>
        </mxCell>
        <mxCell id="VqeSMfjWMOhX9IEyPzhy-20" value="&lt;b&gt;&lt;font style=&quot;font-size: 20px&quot;&gt;List Name &lt;/font&gt;&lt;/b&gt;&lt;font color=&quot;#6c767d&quot;&gt;&lt;b&gt;&lt;font style=&quot;font-size: 14px&quot;&gt;&lt;br style=&quot;font-size: 10px&quot;&gt;Crew Name&lt;br&gt;&lt;/font&gt;&lt;/b&gt;&lt;/font&gt;&lt;br style=&quot;font-size: 14px&quot;&gt;&lt;div&gt;Leader: Leader Name&lt;/div&gt;&lt;div&gt;Description: Short user-specified description of the crew.&lt;br&gt;&lt;/div&gt;" style="html=1;shadow=0;dashed=0;shape=mxgraph.bootstrap.rrect;rSize=5;strokeColor=#DFDFDF;html=1;whiteSpace=wrap;fillColor=#ffffff;fontColor=#000000;verticalAlign=top;align=left;spacing=20;fontSize=14;" vertex="1" parent="1">
          <mxGeometry x="1660" y="590" width="250" height="190" as="geometry" />
        </mxCell>
        <mxCell id="VqeSMfjWMOhX9IEyPzhy-21" value="Edit" style="html=1;shadow=0;dashed=0;shape=mxgraph.bootstrap.rrect;rSize=5;perimeter=none;whiteSpace=wrap;fillColor=none;strokeColor=none;fontColor=#0085FC;resizeWidth=1;fontSize=14;align=center;" vertex="1" parent="VqeSMfjWMOhX9IEyPzhy-20">
          <mxGeometry y="1" width="80" height="40" relative="1" as="geometry">
            <mxPoint x="10" y="-50" as="offset" />
          </mxGeometry>
        </mxCell>
        <mxCell id="VqeSMfjWMOhX9IEyPzhy-22" value="Delete" style="html=1;shadow=0;dashed=0;shape=mxgraph.bootstrap.rrect;rSize=5;perimeter=none;whiteSpace=wrap;fillColor=none;strokeColor=none;fontColor=#ff0000;resizeWidth=1;fontSize=14;align=center;" vertex="1" parent="VqeSMfjWMOhX9IEyPzhy-20">
          <mxGeometry y="1" width="100" height="40" relative="1" as="geometry">
            <mxPoint x="100" y="-50" as="offset" />
          </mxGeometry>
        </mxCell>
        <mxCell id="VqeSMfjWMOhX9IEyPzhy-23" value="&lt;b&gt;&lt;font style=&quot;font-size: 20px&quot;&gt;List Name &lt;/font&gt;&lt;/b&gt;&lt;font color=&quot;#6c767d&quot;&gt;&lt;b&gt;&lt;font style=&quot;font-size: 14px&quot;&gt;&lt;br style=&quot;font-size: 10px&quot;&gt;Crew Name&lt;br&gt;&lt;/font&gt;&lt;/b&gt;&lt;/font&gt;&lt;br style=&quot;font-size: 14px&quot;&gt;&lt;div&gt;Leader: Leader Name&lt;/div&gt;&lt;div&gt;Description: Short user-specified description of the crew.&lt;br&gt;&lt;/div&gt;" style="html=1;shadow=0;dashed=0;shape=mxgraph.bootstrap.rrect;rSize=5;strokeColor=#DFDFDF;html=1;whiteSpace=wrap;fillColor=#ffffff;fontColor=#000000;verticalAlign=top;align=left;spacing=20;fontSize=14;" vertex="1" parent="1">
          <mxGeometry x="620" y="800" width="250" height="190" as="geometry" />
        </mxCell>
        <mxCell id="VqeSMfjWMOhX9IEyPzhy-24" value="Edit" style="html=1;shadow=0;dashed=0;shape=mxgraph.bootstrap.rrect;rSize=5;perimeter=none;whiteSpace=wrap;fillColor=none;strokeColor=none;fontColor=#0085FC;resizeWidth=1;fontSize=14;align=center;" vertex="1" parent="VqeSMfjWMOhX9IEyPzhy-23">
          <mxGeometry y="1" width="80" height="40" relative="1" as="geometry">
            <mxPoint x="10" y="-50" as="offset" />
          </mxGeometry>
        </mxCell>
        <mxCell id="VqeSMfjWMOhX9IEyPzhy-25" value="Delete" style="html=1;shadow=0;dashed=0;shape=mxgraph.bootstrap.rrect;rSize=5;perimeter=none;whiteSpace=wrap;fillColor=none;strokeColor=none;fontColor=#ff0000;resizeWidth=1;fontSize=14;align=center;" vertex="1" parent="VqeSMfjWMOhX9IEyPzhy-23">
          <mxGeometry y="1" width="100" height="40" relative="1" as="geometry">
            <mxPoint x="100" y="-50" as="offset" />
          </mxGeometry>
        </mxCell>
        <mxCell id="VqeSMfjWMOhX9IEyPzhy-26" value="&lt;b&gt;&lt;font style=&quot;font-size: 20px&quot;&gt;List Name &lt;/font&gt;&lt;/b&gt;&lt;font color=&quot;#6c767d&quot;&gt;&lt;b&gt;&lt;font style=&quot;font-size: 14px&quot;&gt;&lt;br style=&quot;font-size: 10px&quot;&gt;Crew Name&lt;br&gt;&lt;/font&gt;&lt;/b&gt;&lt;/font&gt;&lt;br style=&quot;font-size: 14px&quot;&gt;&lt;div&gt;Leader: Leader Name&lt;/div&gt;&lt;div&gt;Description: Short user-specified description of the crew.&lt;br&gt;&lt;/div&gt;" style="html=1;shadow=0;dashed=0;shape=mxgraph.bootstrap.rrect;rSize=5;strokeColor=#DFDFDF;html=1;whiteSpace=wrap;fillColor=#ffffff;fontColor=#000000;verticalAlign=top;align=left;spacing=20;fontSize=14;" vertex="1" parent="1">
          <mxGeometry x="880" y="800" width="250" height="190" as="geometry" />
        </mxCell>
        <mxCell id="VqeSMfjWMOhX9IEyPzhy-27" value="Edit" style="html=1;shadow=0;dashed=0;shape=mxgraph.bootstrap.rrect;rSize=5;perimeter=none;whiteSpace=wrap;fillColor=none;strokeColor=none;fontColor=#0085FC;resizeWidth=1;fontSize=14;align=center;" vertex="1" parent="VqeSMfjWMOhX9IEyPzhy-26">
          <mxGeometry y="1" width="80" height="40" relative="1" as="geometry">
            <mxPoint x="10" y="-50" as="offset" />
          </mxGeometry>
        </mxCell>
        <mxCell id="VqeSMfjWMOhX9IEyPzhy-28" value="Delete" style="html=1;shadow=0;dashed=0;shape=mxgraph.bootstrap.rrect;rSize=5;perimeter=none;whiteSpace=wrap;fillColor=none;strokeColor=none;fontColor=#ff0000;resizeWidth=1;fontSize=14;align=center;" vertex="1" parent="VqeSMfjWMOhX9IEyPzhy-26">
          <mxGeometry y="1" width="100" height="40" relative="1" as="geometry">
            <mxPoint x="100" y="-50" as="offset" />
          </mxGeometry>
        </mxCell>
        <mxCell id="VqeSMfjWMOhX9IEyPzhy-29" value="&lt;b&gt;&lt;font style=&quot;font-size: 20px&quot;&gt;List Name &lt;/font&gt;&lt;/b&gt;&lt;font color=&quot;#6c767d&quot;&gt;&lt;b&gt;&lt;font style=&quot;font-size: 14px&quot;&gt;&lt;br style=&quot;font-size: 10px&quot;&gt;Crew Name&lt;br&gt;&lt;/font&gt;&lt;/b&gt;&lt;/font&gt;&lt;br style=&quot;font-size: 14px&quot;&gt;&lt;div&gt;Leader: Leader Name&lt;/div&gt;&lt;div&gt;Description: Short user-specified description of the crew.&lt;br&gt;&lt;/div&gt;" style="html=1;shadow=0;dashed=0;shape=mxgraph.bootstrap.rrect;rSize=5;strokeColor=#DFDFDF;html=1;whiteSpace=wrap;fillColor=#ffffff;fontColor=#000000;verticalAlign=top;align=left;spacing=20;fontSize=14;" vertex="1" parent="1">
          <mxGeometry x="1140" y="800" width="250" height="190" as="geometry" />
        </mxCell>
        <mxCell id="VqeSMfjWMOhX9IEyPzhy-30" value="Edit" style="html=1;shadow=0;dashed=0;shape=mxgraph.bootstrap.rrect;rSize=5;perimeter=none;whiteSpace=wrap;fillColor=none;strokeColor=none;fontColor=#0085FC;resizeWidth=1;fontSize=14;align=center;" vertex="1" parent="VqeSMfjWMOhX9IEyPzhy-29">
          <mxGeometry y="1" width="80" height="40" relative="1" as="geometry">
            <mxPoint x="10" y="-50" as="offset" />
          </mxGeometry>
        </mxCell>
        <mxCell id="VqeSMfjWMOhX9IEyPzhy-31" value="Delete" style="html=1;shadow=0;dashed=0;shape=mxgraph.bootstrap.rrect;rSize=5;perimeter=none;whiteSpace=wrap;fillColor=none;strokeColor=none;fontColor=#ff0000;resizeWidth=1;fontSize=14;align=center;" vertex="1" parent="VqeSMfjWMOhX9IEyPzhy-29">
          <mxGeometry y="1" width="100" height="40" relative="1" as="geometry">
            <mxPoint x="100" y="-50" as="offset" />
          </mxGeometry>
        </mxCell>
        <mxCell id="VqeSMfjWMOhX9IEyPzhy-32" value="&lt;b&gt;&lt;font style=&quot;font-size: 20px&quot;&gt;List Name &lt;/font&gt;&lt;/b&gt;&lt;font color=&quot;#6c767d&quot;&gt;&lt;b&gt;&lt;font style=&quot;font-size: 14px&quot;&gt;&lt;br style=&quot;font-size: 10px&quot;&gt;Crew Name&lt;br&gt;&lt;/font&gt;&lt;/b&gt;&lt;/font&gt;&lt;br style=&quot;font-size: 14px&quot;&gt;&lt;div&gt;Leader: Leader Name&lt;/div&gt;&lt;div&gt;Description: Short user-specified description of the crew.&lt;br&gt;&lt;/div&gt;" style="html=1;shadow=0;dashed=0;shape=mxgraph.bootstrap.rrect;rSize=5;strokeColor=#DFDFDF;html=1;whiteSpace=wrap;fillColor=#ffffff;fontColor=#000000;verticalAlign=top;align=left;spacing=20;fontSize=14;" vertex="1" parent="1">
          <mxGeometry x="1400" y="800" width="250" height="190" as="geometry" />
        </mxCell>
        <mxCell id="VqeSMfjWMOhX9IEyPzhy-33" value="Edit" style="html=1;shadow=0;dashed=0;shape=mxgraph.bootstrap.rrect;rSize=5;perimeter=none;whiteSpace=wrap;fillColor=none;strokeColor=none;fontColor=#0085FC;resizeWidth=1;fontSize=14;align=center;" vertex="1" parent="VqeSMfjWMOhX9IEyPzhy-32">
          <mxGeometry y="1" width="80" height="40" relative="1" as="geometry">
            <mxPoint x="10" y="-50" as="offset" />
          </mxGeometry>
        </mxCell>
        <mxCell id="VqeSMfjWMOhX9IEyPzhy-34" value="Delete" style="html=1;shadow=0;dashed=0;shape=mxgraph.bootstrap.rrect;rSize=5;perimeter=none;whiteSpace=wrap;fillColor=none;strokeColor=none;fontColor=#ff0000;resizeWidth=1;fontSize=14;align=center;" vertex="1" parent="VqeSMfjWMOhX9IEyPzhy-32">
          <mxGeometry y="1" width="100" height="40" relative="1" as="geometry">
            <mxPoint x="100" y="-50" as="offset" />
          </mxGeometry>
        </mxCell>
        <mxCell id="VqeSMfjWMOhX9IEyPzhy-35" value="&lt;b&gt;&lt;font style=&quot;font-size: 20px&quot;&gt;List Name &lt;/font&gt;&lt;/b&gt;&lt;font color=&quot;#6c767d&quot;&gt;&lt;b&gt;&lt;font style=&quot;font-size: 14px&quot;&gt;&lt;br style=&quot;font-size: 10px&quot;&gt;Crew Name&lt;br&gt;&lt;/font&gt;&lt;/b&gt;&lt;/font&gt;&lt;br style=&quot;font-size: 14px&quot;&gt;&lt;div&gt;Leader: Leader Name&lt;/div&gt;&lt;div&gt;Description: Short user-specified description of the crew.&lt;br&gt;&lt;/div&gt;" style="html=1;shadow=0;dashed=0;shape=mxgraph.bootstrap.rrect;rSize=5;strokeColor=#DFDFDF;html=1;whiteSpace=wrap;fillColor=#ffffff;fontColor=#000000;verticalAlign=top;align=left;spacing=20;fontSize=14;" vertex="1" parent="1">
          <mxGeometry x="1660" y="800" width="250" height="190" as="geometry" />
        </mxCell>
        <mxCell id="VqeSMfjWMOhX9IEyPzhy-36" value="Edit" style="html=1;shadow=0;dashed=0;shape=mxgraph.bootstrap.rrect;rSize=5;perimeter=none;whiteSpace=wrap;fillColor=none;strokeColor=none;fontColor=#0085FC;resizeWidth=1;fontSize=14;align=center;" vertex="1" parent="VqeSMfjWMOhX9IEyPzhy-35">
          <mxGeometry y="1" width="80" height="40" relative="1" as="geometry">
            <mxPoint x="10" y="-50" as="offset" />
          </mxGeometry>
        </mxCell>
        <mxCell id="VqeSMfjWMOhX9IEyPzhy-37" value="Delete" style="html=1;shadow=0;dashed=0;shape=mxgraph.bootstrap.rrect;rSize=5;perimeter=none;whiteSpace=wrap;fillColor=none;strokeColor=none;fontColor=#ff0000;resizeWidth=1;fontSize=14;align=center;" vertex="1" parent="VqeSMfjWMOhX9IEyPzhy-35">
          <mxGeometry y="1" width="100" height="40" relative="1" as="geometry">
            <mxPoint x="100" y="-50" as="offset" />
          </mxGeometry>
        </mxCell>
        <mxCell id="VqeSMfjWMOhX9IEyPzhy-38" value="&lt;b&gt;&lt;font style=&quot;font-size: 20px&quot;&gt;List Name &lt;/font&gt;&lt;/b&gt;&lt;font color=&quot;#6c767d&quot;&gt;&lt;b&gt;&lt;font style=&quot;font-size: 14px&quot;&gt;&lt;br style=&quot;font-size: 10px&quot;&gt;Crew Name&lt;br&gt;&lt;/font&gt;&lt;/b&gt;&lt;/font&gt;&lt;br style=&quot;font-size: 14px&quot;&gt;&lt;div&gt;Leader: Leader Name&lt;/div&gt;&lt;div&gt;Description: Short user-specified description of the crew.&lt;br&gt;&lt;/div&gt;" style="html=1;shadow=0;dashed=0;shape=mxgraph.bootstrap.rrect;rSize=5;strokeColor=#DFDFDF;html=1;whiteSpace=wrap;fillColor=#ffffff;fontColor=#000000;verticalAlign=top;align=left;spacing=20;fontSize=14;" vertex="1" parent="1">
          <mxGeometry x="620" y="1010" width="250" height="190" as="geometry" />
        </mxCell>
        <mxCell id="VqeSMfjWMOhX9IEyPzhy-39" value="Edit" style="html=1;shadow=0;dashed=0;shape=mxgraph.bootstrap.rrect;rSize=5;perimeter=none;whiteSpace=wrap;fillColor=none;strokeColor=none;fontColor=#0085FC;resizeWidth=1;fontSize=14;align=center;" vertex="1" parent="VqeSMfjWMOhX9IEyPzhy-38">
          <mxGeometry y="1" width="80" height="40" relative="1" as="geometry">
            <mxPoint x="10" y="-50" as="offset" />
          </mxGeometry>
        </mxCell>
        <mxCell id="VqeSMfjWMOhX9IEyPzhy-40" value="Delete" style="html=1;shadow=0;dashed=0;shape=mxgraph.bootstrap.rrect;rSize=5;perimeter=none;whiteSpace=wrap;fillColor=none;strokeColor=none;fontColor=#ff0000;resizeWidth=1;fontSize=14;align=center;" vertex="1" parent="VqeSMfjWMOhX9IEyPzhy-38">
          <mxGeometry y="1" width="100" height="40" relative="1" as="geometry">
            <mxPoint x="100" y="-50" as="offset" />
          </mxGeometry>
        </mxCell>
        <mxCell id="VqeSMfjWMOhX9IEyPzhy-41" value="&lt;b&gt;&lt;font style=&quot;font-size: 20px&quot;&gt;List Name &lt;/font&gt;&lt;/b&gt;&lt;font color=&quot;#6c767d&quot;&gt;&lt;b&gt;&lt;font style=&quot;font-size: 14px&quot;&gt;&lt;br style=&quot;font-size: 10px&quot;&gt;Crew Name&lt;br&gt;&lt;/font&gt;&lt;/b&gt;&lt;/font&gt;&lt;br style=&quot;font-size: 14px&quot;&gt;&lt;div&gt;Leader: Leader Name&lt;/div&gt;&lt;div&gt;Description: Short user-specified description of the crew.&lt;br&gt;&lt;/div&gt;" style="html=1;shadow=0;dashed=0;shape=mxgraph.bootstrap.rrect;rSize=5;strokeColor=#DFDFDF;html=1;whiteSpace=wrap;fillColor=#ffffff;fontColor=#000000;verticalAlign=top;align=left;spacing=20;fontSize=14;" vertex="1" parent="1">
          <mxGeometry x="880" y="1010" width="250" height="190" as="geometry" />
        </mxCell>
        <mxCell id="VqeSMfjWMOhX9IEyPzhy-42" value="Edit" style="html=1;shadow=0;dashed=0;shape=mxgraph.bootstrap.rrect;rSize=5;perimeter=none;whiteSpace=wrap;fillColor=none;strokeColor=none;fontColor=#0085FC;resizeWidth=1;fontSize=14;align=center;" vertex="1" parent="VqeSMfjWMOhX9IEyPzhy-41">
          <mxGeometry y="1" width="80" height="40" relative="1" as="geometry">
            <mxPoint x="10" y="-50" as="offset" />
          </mxGeometry>
        </mxCell>
        <mxCell id="VqeSMfjWMOhX9IEyPzhy-43" value="Delete" style="html=1;shadow=0;dashed=0;shape=mxgraph.bootstrap.rrect;rSize=5;perimeter=none;whiteSpace=wrap;fillColor=none;strokeColor=none;fontColor=#ff0000;resizeWidth=1;fontSize=14;align=center;" vertex="1" parent="VqeSMfjWMOhX9IEyPzhy-41">
          <mxGeometry y="1" width="100" height="40" relative="1" as="geometry">
            <mxPoint x="100" y="-50" as="offset" />
          </mxGeometry>
        </mxCell>
        <mxCell id="VqeSMfjWMOhX9IEyPzhy-44" value="&lt;b&gt;&lt;font style=&quot;font-size: 20px&quot;&gt;List Name &lt;/font&gt;&lt;/b&gt;&lt;font color=&quot;#6c767d&quot;&gt;&lt;b&gt;&lt;font style=&quot;font-size: 14px&quot;&gt;&lt;br style=&quot;font-size: 10px&quot;&gt;Crew Name&lt;br&gt;&lt;/font&gt;&lt;/b&gt;&lt;/font&gt;&lt;br style=&quot;font-size: 14px&quot;&gt;&lt;div&gt;Leader: Leader Name&lt;/div&gt;&lt;div&gt;Description: Short user-specified description of the crew.&lt;br&gt;&lt;/div&gt;" style="html=1;shadow=0;dashed=0;shape=mxgraph.bootstrap.rrect;rSize=5;strokeColor=#DFDFDF;html=1;whiteSpace=wrap;fillColor=#ffffff;fontColor=#000000;verticalAlign=top;align=left;spacing=20;fontSize=14;" vertex="1" parent="1">
          <mxGeometry x="1140" y="1010" width="250" height="190" as="geometry" />
        </mxCell>
        <mxCell id="VqeSMfjWMOhX9IEyPzhy-45" value="Edit" style="html=1;shadow=0;dashed=0;shape=mxgraph.bootstrap.rrect;rSize=5;perimeter=none;whiteSpace=wrap;fillColor=none;strokeColor=none;fontColor=#0085FC;resizeWidth=1;fontSize=14;align=center;" vertex="1" parent="VqeSMfjWMOhX9IEyPzhy-44">
          <mxGeometry y="1" width="80" height="40" relative="1" as="geometry">
            <mxPoint x="10" y="-50" as="offset" />
          </mxGeometry>
        </mxCell>
        <mxCell id="VqeSMfjWMOhX9IEyPzhy-46" value="Delete" style="html=1;shadow=0;dashed=0;shape=mxgraph.bootstrap.rrect;rSize=5;perimeter=none;whiteSpace=wrap;fillColor=none;strokeColor=none;fontColor=#ff0000;resizeWidth=1;fontSize=14;align=center;" vertex="1" parent="VqeSMfjWMOhX9IEyPzhy-44">
          <mxGeometry y="1" width="100" height="40" relative="1" as="geometry">
            <mxPoint x="100" y="-50" as="offset" />
          </mxGeometry>
        </mxCell>
        <mxCell id="VqeSMfjWMOhX9IEyPzhy-47" value="&lt;b&gt;&lt;font style=&quot;font-size: 20px&quot;&gt;List Name &lt;/font&gt;&lt;/b&gt;&lt;font color=&quot;#6c767d&quot;&gt;&lt;b&gt;&lt;font style=&quot;font-size: 14px&quot;&gt;&lt;br style=&quot;font-size: 10px&quot;&gt;Crew Name&lt;br&gt;&lt;/font&gt;&lt;/b&gt;&lt;/font&gt;&lt;br style=&quot;font-size: 14px&quot;&gt;&lt;div&gt;Leader: Leader Name&lt;/div&gt;&lt;div&gt;Description: Short user-specified description of the crew.&lt;br&gt;&lt;/div&gt;" style="html=1;shadow=0;dashed=0;shape=mxgraph.bootstrap.rrect;rSize=5;strokeColor=#DFDFDF;html=1;whiteSpace=wrap;fillColor=#ffffff;fontColor=#000000;verticalAlign=top;align=left;spacing=20;fontSize=14;" vertex="1" parent="1">
          <mxGeometry x="1400" y="1010" width="250" height="190" as="geometry" />
        </mxCell>
        <mxCell id="VqeSMfjWMOhX9IEyPzhy-48" value="Edit" style="html=1;shadow=0;dashed=0;shape=mxgraph.bootstrap.rrect;rSize=5;perimeter=none;whiteSpace=wrap;fillColor=none;strokeColor=none;fontColor=#0085FC;resizeWidth=1;fontSize=14;align=center;" vertex="1" parent="VqeSMfjWMOhX9IEyPzhy-47">
          <mxGeometry y="1" width="80" height="40" relative="1" as="geometry">
            <mxPoint x="10" y="-50" as="offset" />
          </mxGeometry>
        </mxCell>
        <mxCell id="VqeSMfjWMOhX9IEyPzhy-49" value="Delete" style="html=1;shadow=0;dashed=0;shape=mxgraph.bootstrap.rrect;rSize=5;perimeter=none;whiteSpace=wrap;fillColor=none;strokeColor=none;fontColor=#ff0000;resizeWidth=1;fontSize=14;align=center;" vertex="1" parent="VqeSMfjWMOhX9IEyPzhy-47">
          <mxGeometry y="1" width="100" height="40" relative="1" as="geometry">
            <mxPoint x="100" y="-50" as="offset" />
          </mxGeometry>
        </mxCell>
        <mxCell id="VqeSMfjWMOhX9IEyPzhy-50" value="&lt;b&gt;&lt;font style=&quot;font-size: 20px&quot;&gt;List Name &lt;/font&gt;&lt;/b&gt;&lt;font color=&quot;#6c767d&quot;&gt;&lt;b&gt;&lt;font style=&quot;font-size: 14px&quot;&gt;&lt;br style=&quot;font-size: 10px&quot;&gt;Crew Name&lt;br&gt;&lt;/font&gt;&lt;/b&gt;&lt;/font&gt;&lt;br style=&quot;font-size: 14px&quot;&gt;&lt;div&gt;Leader: Leader Name&lt;/div&gt;&lt;div&gt;Description: Short user-specified description of the crew.&lt;br&gt;&lt;/div&gt;" style="html=1;shadow=0;dashed=0;shape=mxgraph.bootstrap.rrect;rSize=5;strokeColor=#DFDFDF;html=1;whiteSpace=wrap;fillColor=#ffffff;fontColor=#000000;verticalAlign=top;align=left;spacing=20;fontSize=14;" vertex="1" parent="1">
          <mxGeometry x="1660" y="1010" width="250" height="190" as="geometry" />
        </mxCell>
        <mxCell id="VqeSMfjWMOhX9IEyPzhy-51" value="Edit" style="html=1;shadow=0;dashed=0;shape=mxgraph.bootstrap.rrect;rSize=5;perimeter=none;whiteSpace=wrap;fillColor=none;strokeColor=none;fontColor=#0085FC;resizeWidth=1;fontSize=14;align=center;" vertex="1" parent="VqeSMfjWMOhX9IEyPzhy-50">
          <mxGeometry y="1" width="80" height="40" relative="1" as="geometry">
            <mxPoint x="10" y="-50" as="offset" />
          </mxGeometry>
        </mxCell>
        <mxCell id="VqeSMfjWMOhX9IEyPzhy-52" value="Delete" style="html=1;shadow=0;dashed=0;shape=mxgraph.bootstrap.rrect;rSize=5;perimeter=none;whiteSpace=wrap;fillColor=none;strokeColor=none;fontColor=#ff0000;resizeWidth=1;fontSize=14;align=center;" vertex="1" parent="VqeSMfjWMOhX9IEyPzhy-50">
          <mxGeometry y="1" width="100" height="40" relative="1" as="geometry">
            <mxPoint x="100" y="-50" as="offset" />
          </mxGeometry>
        </mxCell>
        <mxCell id="VqeSMfjWMOhX9IEyPzhy-53" value="Add Crew" style="html=1;shadow=0;dashed=0;shape=mxgraph.bootstrap.rrect;rSize=5;strokeColor=none;strokeWidth=1;fillColor=#0085FC;fontColor=#FFFFFF;whiteSpace=wrap;align=center;verticalAlign=middle;spacingLeft=0;fontStyle=0;fontSize=16;spacing=5;" vertex="1" parent="1">
          <mxGeometry x="435" y="620" width="100" height="40" as="geometry" />
        </mxCell>
        <mxCell id="VqeSMfjWMOhX9IEyPzhy-59" value="&lt;font style=&quot;font-size: 20px;&quot;&gt;Filter:&lt;/font&gt;" style="text;html=1;strokeColor=none;fillColor=none;align=center;verticalAlign=middle;whiteSpace=wrap;rounded=0;" vertex="1" parent="1">
          <mxGeometry x="390" y="690" width="60" height="30" as="geometry" />
        </mxCell>
        <mxCell id="VqeSMfjWMOhX9IEyPzhy-60" value="" style="endArrow=none;html=1;rounded=0;" edge="1" parent="1">
          <mxGeometry width="50" height="50" relative="1" as="geometry">
            <mxPoint x="390" y="679.43" as="sourcePoint" />
            <mxPoint x="580" y="680" as="targetPoint" />
          </mxGeometry>
        </mxCell>
        <mxCell id="VqeSMfjWMOhX9IEyPzhy-62" value="" style="html=1;shadow=0;dashed=0;shape=mxgraph.bootstrap.rrect;rSize=5;fillColor=#ffffff;strokeColor=#999999;" vertex="1" parent="1">
          <mxGeometry x="390" y="720" width="190" height="360" as="geometry" />
        </mxCell>
        <mxCell id="VqeSMfjWMOhX9IEyPzhy-63" value="Law Forces" style="fillColor=none;strokeColor=none;align=left;spacing=20;fontSize=14;" vertex="1" parent="VqeSMfjWMOhX9IEyPzhy-62">
          <mxGeometry width="190" height="30" relative="1" as="geometry">
            <mxPoint y="10" as="offset" />
          </mxGeometry>
        </mxCell>
        <mxCell id="VqeSMfjWMOhX9IEyPzhy-64" value="Harley Quinn &amp; Friends" style="fillColor=#0085FC;strokeColor=none;fontColor=#ffffff;align=left;spacing=20;fontSize=14;sketch=0;" vertex="1" parent="VqeSMfjWMOhX9IEyPzhy-62">
          <mxGeometry width="190" height="30" relative="1" as="geometry">
            <mxPoint y="40" as="offset" />
          </mxGeometry>
        </mxCell>
        <mxCell id="VqeSMfjWMOhX9IEyPzhy-65" value="Vigilantes" style="fillColor=none;strokeColor=none;align=left;spacing=20;fontSize=14;" vertex="1" parent="VqeSMfjWMOhX9IEyPzhy-62">
          <mxGeometry width="190" height="30" relative="1" as="geometry">
            <mxPoint y="70" as="offset" />
          </mxGeometry>
        </mxCell>
        <mxCell id="VqeSMfjWMOhX9IEyPzhy-67" value="Doom Patrol" style="fillColor=none;strokeColor=none;align=left;spacing=20;fontSize=14;" vertex="1" parent="VqeSMfjWMOhX9IEyPzhy-62">
          <mxGeometry y="100" width="190" height="30" as="geometry" />
        </mxCell>
        <mxCell id="VqeSMfjWMOhX9IEyPzhy-68" value="Crew Name" style="fillColor=none;strokeColor=none;align=left;spacing=20;fontSize=14;" vertex="1" parent="VqeSMfjWMOhX9IEyPzhy-62">
          <mxGeometry y="130" width="190" height="30" as="geometry" />
        </mxCell>
        <mxCell id="VqeSMfjWMOhX9IEyPzhy-69" value="Crew Name" style="fillColor=none;strokeColor=none;align=left;spacing=20;fontSize=14;" vertex="1" parent="VqeSMfjWMOhX9IEyPzhy-62">
          <mxGeometry y="160" width="190" height="30" as="geometry" />
        </mxCell>
        <mxCell id="VqeSMfjWMOhX9IEyPzhy-71" value="Crew Name" style="fillColor=none;strokeColor=none;align=left;spacing=20;fontSize=14;" vertex="1" parent="VqeSMfjWMOhX9IEyPzhy-62">
          <mxGeometry y="190" width="190" height="30" as="geometry" />
        </mxCell>
        <mxCell id="VqeSMfjWMOhX9IEyPzhy-72" value="Crew Name" style="fillColor=none;strokeColor=none;align=left;spacing=20;fontSize=14;" vertex="1" parent="VqeSMfjWMOhX9IEyPzhy-62">
          <mxGeometry y="220" width="190" height="30" as="geometry" />
        </mxCell>
        <mxCell id="VqeSMfjWMOhX9IEyPzhy-73" value="Crew Name" style="fillColor=none;strokeColor=none;align=left;spacing=20;fontSize=14;" vertex="1" parent="VqeSMfjWMOhX9IEyPzhy-62">
          <mxGeometry y="250" width="190" height="30" as="geometry" />
        </mxCell>
        <mxCell id="VqeSMfjWMOhX9IEyPzhy-74" value="Crew Name" style="fillColor=none;strokeColor=none;align=left;spacing=20;fontSize=14;" vertex="1" parent="VqeSMfjWMOhX9IEyPzhy-62">
          <mxGeometry y="280" width="190" height="30" as="geometry" />
        </mxCell>
        <mxCell id="VqeSMfjWMOhX9IEyPzhy-75" value="Crew Name" style="fillColor=none;strokeColor=none;align=left;spacing=20;fontSize=14;" vertex="1" parent="VqeSMfjWMOhX9IEyPzhy-62">
          <mxGeometry y="310" width="190" height="30" as="geometry" />
        </mxCell>
        <mxCell id="VqeSMfjWMOhX9IEyPzhy-76" value="" style="rounded=0;whiteSpace=wrap;html=1;fillColor=#dae8fc;strokeColor=none;align=left;movable=0;resizable=0;rotatable=0;deletable=0;editable=0;locked=1;connectable=0;" vertex="1" parent="1">
          <mxGeometry x="310" y="480" width="1880" height="60" as="geometry" />
        </mxCell>
        <mxCell id="VqeSMfjWMOhX9IEyPzhy-77" value="&lt;font style=&quot;font-size: 24px;&quot;&gt;&lt;b&gt;Bat Stats&lt;/b&gt;&lt;br&gt;&lt;/font&gt;" style="text;html=1;strokeColor=none;fillColor=none;align=center;verticalAlign=middle;whiteSpace=wrap;rounded=0;" vertex="1" parent="1">
          <mxGeometry x="330" y="495" width="110" height="30" as="geometry" />
        </mxCell>
        <mxCell id="VqeSMfjWMOhX9IEyPzhy-78" value="&lt;font style=&quot;font-size: 20px;&quot;&gt;&lt;b&gt;List Builder&lt;br&gt;&lt;/b&gt;&lt;/font&gt;" style="text;html=1;strokeColor=none;fillColor=none;align=center;verticalAlign=middle;whiteSpace=wrap;rounded=0;" vertex="1" parent="1">
          <mxGeometry x="407.5" y="560" width="155" height="30" as="geometry" />
        </mxCell>
        <mxCell id="VqeSMfjWMOhX9IEyPzhy-80" value="" style="html=1;shadow=0;dashed=0;shape=mxgraph.bootstrap.rrect;rSize=5;strokeColor=#DEE2E6;html=1;whiteSpace=wrap;fillColor=#ffffff;fontColor=#0085FC;fontSize=14;" vertex="1" parent="1">
          <mxGeometry x="1675" y="1220" width="220" height="30" as="geometry" />
        </mxCell>
        <mxCell id="VqeSMfjWMOhX9IEyPzhy-81" value="Previous" style="strokeColor=inherit;fillColor=inherit;gradientColor=inherit;fontColor=inherit;html=1;shadow=0;dashed=0;shape=mxgraph.bootstrap.leftButton;rSize=5;perimeter=none;whiteSpace=wrap;resizeHeight=1;fontSize=14;" vertex="1" parent="VqeSMfjWMOhX9IEyPzhy-80">
          <mxGeometry width="70" height="30" relative="1" as="geometry" />
        </mxCell>
        <mxCell id="VqeSMfjWMOhX9IEyPzhy-82" value="1" style="strokeColor=inherit;fillColor=inherit;gradientColor=inherit;fontColor=inherit;html=1;shadow=0;dashed=0;perimeter=none;whiteSpace=wrap;resizeHeight=1;fontSize=14;" vertex="1" parent="VqeSMfjWMOhX9IEyPzhy-80">
          <mxGeometry width="30" height="30" relative="1" as="geometry">
            <mxPoint x="70" as="offset" />
          </mxGeometry>
        </mxCell>
        <mxCell id="VqeSMfjWMOhX9IEyPzhy-83" value="2" style="strokeColor=inherit;fillColor=inherit;gradientColor=inherit;fontColor=inherit;html=1;shadow=0;dashed=0;perimeter=none;whiteSpace=wrap;resizeHeight=1;fontSize=14;" vertex="1" parent="VqeSMfjWMOhX9IEyPzhy-80">
          <mxGeometry width="30" height="30" relative="1" as="geometry">
            <mxPoint x="100" as="offset" />
          </mxGeometry>
        </mxCell>
        <mxCell id="VqeSMfjWMOhX9IEyPzhy-84" value="3" style="strokeColor=inherit;fillColor=inherit;gradientColor=inherit;fontColor=inherit;html=1;shadow=0;dashed=0;perimeter=none;whiteSpace=wrap;resizeHeight=1;fontSize=14;" vertex="1" parent="VqeSMfjWMOhX9IEyPzhy-80">
          <mxGeometry width="30" height="30" relative="1" as="geometry">
            <mxPoint x="130" as="offset" />
          </mxGeometry>
        </mxCell>
        <mxCell id="VqeSMfjWMOhX9IEyPzhy-85" value="Next" style="strokeColor=inherit;fillColor=inherit;gradientColor=inherit;fontColor=inherit;html=1;shadow=0;dashed=0;shape=mxgraph.bootstrap.rightButton;rSize=5;perimeter=none;whiteSpace=wrap;resizeHeight=1;fontSize=14;" vertex="1" parent="VqeSMfjWMOhX9IEyPzhy-80">
          <mxGeometry x="1" width="60" height="30" relative="1" as="geometry">
            <mxPoint x="-60" as="offset" />
          </mxGeometry>
        </mxCell>
      </root>
    </mxGraphModel>
  </diagram>
  <diagram name="Copy of List Selection Page" id="Kp5YTZmY1dGfOtgE9IV8">
    <mxGraphModel dx="1235" dy="679" grid="1" gridSize="10" guides="1" tooltips="1" connect="1" arrows="1" fold="1" page="1" pageScale="1" pageWidth="850" pageHeight="1100" math="0" shadow="0">
      <root>
        <mxCell id="fszB-bSsfYhZuWbeiYeR-0" />
        <mxCell id="fszB-bSsfYhZuWbeiYeR-1" parent="fszB-bSsfYhZuWbeiYeR-0" />
        <mxCell id="fszB-bSsfYhZuWbeiYeR-2" value="" style="strokeWidth=1;shadow=0;dashed=0;align=center;html=1;shape=mxgraph.mockup.containers.browserWindow;rSize=0;strokeColor=#666666;strokeColor2=#008cff;strokeColor3=#c4c4c4;mainText=,;recursiveResize=0;movable=0;resizable=0;rotatable=0;deletable=0;editable=0;locked=1;connectable=0;" vertex="1" parent="fszB-bSsfYhZuWbeiYeR-1">
          <mxGeometry x="310" y="370" width="1880" height="960" as="geometry" />
        </mxCell>
        <mxCell id="fszB-bSsfYhZuWbeiYeR-3" value="Page 1" style="strokeWidth=1;shadow=0;dashed=0;align=center;html=1;shape=mxgraph.mockup.containers.anchor;fontSize=17;fontColor=#666666;align=left;whiteSpace=wrap;" vertex="1" parent="fszB-bSsfYhZuWbeiYeR-2">
          <mxGeometry x="60" y="12" width="110" height="26" as="geometry" />
        </mxCell>
        <mxCell id="fszB-bSsfYhZuWbeiYeR-4" value="https://www.draw.io" style="strokeWidth=1;shadow=0;dashed=0;align=center;html=1;shape=mxgraph.mockup.containers.anchor;rSize=0;fontSize=17;fontColor=#666666;align=left;" vertex="1" parent="fszB-bSsfYhZuWbeiYeR-2">
          <mxGeometry x="130" y="60" width="250" height="26" as="geometry" />
        </mxCell>
        <mxCell id="fszB-bSsfYhZuWbeiYeR-65" value="" style="rounded=0;whiteSpace=wrap;html=1;fillColor=#dae8fc;strokeColor=none;align=left;movable=0;resizable=0;rotatable=0;deletable=0;editable=0;locked=1;connectable=0;" vertex="1" parent="fszB-bSsfYhZuWbeiYeR-1">
          <mxGeometry x="310" y="480" width="1880" height="60" as="geometry" />
        </mxCell>
        <mxCell id="fszB-bSsfYhZuWbeiYeR-66" value="&lt;font style=&quot;font-size: 24px;&quot;&gt;&lt;b&gt;Bat Stats&lt;/b&gt;&lt;br&gt;&lt;/font&gt;" style="text;html=1;strokeColor=none;fillColor=none;align=center;verticalAlign=middle;whiteSpace=wrap;rounded=0;" vertex="1" parent="fszB-bSsfYhZuWbeiYeR-1">
          <mxGeometry x="330" y="495" width="110" height="30" as="geometry" />
        </mxCell>
        <mxCell id="fszB-bSsfYhZuWbeiYeR-67" value="&lt;div style=&quot;font-size: 20px;&quot;&gt;List Builder - Edit: My List &lt;br&gt;&lt;/div&gt;" style="text;html=1;strokeColor=none;fillColor=none;align=left;verticalAlign=middle;whiteSpace=wrap;rounded=0;" vertex="1" parent="fszB-bSsfYhZuWbeiYeR-1">
          <mxGeometry x="407.5" y="560" width="282.5" height="30" as="geometry" />
        </mxCell>
        <mxCell id="lV4ECo-1T-XDbCV-_EXE-0" value="" style="rounded=0;whiteSpace=wrap;html=1;movable=0;resizable=0;rotatable=0;deletable=0;editable=0;locked=1;connectable=0;" vertex="1" parent="fszB-bSsfYhZuWbeiYeR-1">
          <mxGeometry x="410" y="600" width="1750" height="700" as="geometry" />
        </mxCell>
        <mxCell id="lV4ECo-1T-XDbCV-_EXE-1" value="Save" style="html=1;shadow=0;dashed=0;shape=mxgraph.bootstrap.rrect;rSize=5;strokeColor=none;strokeWidth=1;fillColor=#0085FC;fontColor=#FFFFFF;whiteSpace=wrap;align=center;verticalAlign=middle;spacingLeft=0;fontStyle=0;fontSize=16;spacing=5;" vertex="1" parent="fszB-bSsfYhZuWbeiYeR-1">
          <mxGeometry x="1990" y="550" width="80" height="40" as="geometry" />
        </mxCell>
        <mxCell id="lV4ECo-1T-XDbCV-_EXE-2" value="Disgard" style="html=1;shadow=0;dashed=0;shape=mxgraph.bootstrap.rrect;rSize=5;strokeColor=none;strokeWidth=1;fillColor=#DB2843;fontColor=#FFFFFF;whiteSpace=wrap;align=center;verticalAlign=middle;spacingLeft=0;fontStyle=0;fontSize=16;spacing=5;" vertex="1" parent="fszB-bSsfYhZuWbeiYeR-1">
          <mxGeometry x="2080" y="550" width="80" height="40" as="geometry" />
        </mxCell>
        <mxCell id="lV4ECo-1T-XDbCV-_EXE-4" value="" style="sketch=0;pointerEvents=1;shadow=0;dashed=0;html=1;strokeColor=none;fillColor=#505050;labelPosition=center;verticalLabelPosition=bottom;verticalAlign=top;outlineConnect=0;align=center;shape=mxgraph.office.concepts.writing_pencil;" vertex="1" parent="fszB-bSsfYhZuWbeiYeR-1">
          <mxGeometry x="640" y="565" width="20" height="20" as="geometry" />
        </mxCell>
      </root>
    </mxGraphModel>
  </diagram>
</mxfile>
